<svg width="287" height="105" viewBox="0 0 287 105" fill="none" xmlns="http://www.w3.org/2000/svg">
<path d="M2.07142 1.91716C-1.68079 2.44938 0.742156 11.4903 1.0878 13.2512C2.30271 19.3248 6.98007 22.2499 9.45116 27.1887C10.4778 29.241 3.63541 32.9829 5.26819 36.2485C6.35843 38.4289 11.6506 38.7187 10.4958 42.1708C9.73318 44.4622 6.63442 45.8938 7.36096 48.7913C8.08664 51.6906 13.6737 54.626 11.8818 58.1977C9.87075 62.2181 3.49182 80.44 5.25959 83.9928C6.79951 87.0717 11.7348 85.2395 13.2747 86.7794C13.9798 87.487 4.85806 99.9663 7.00414 102.11C9.3368 104.445 14.6418 103.674 17.8033 104.203C32.0495 106.575 45.8133 100.368 59.9632 100.368C85.883 100.368 114.529 104.243 140.103 102.11C155.237 100.849 170.312 99.3017 185.398 97.9294C198.003 96.7833 210.778 98.9749 223.378 98.9749C238.841 98.9749 253.89 102.11 269.37 102.11C272.263 102.11 282.538 103.229 284.7 101.065C285.764 100.002 279.778 94.8822 280.52 93.4008C282.145 90.149 288.763 85.4897 286.442 80.857C285.549 79.036 283.065 78.5992 282.267 77.012C281.387 75.252 285.887 72.7568 285.054 71.087C283.673 68.3245 277.257 63.6411 275.297 61.6816C274.424 60.8063 282.049 50.0948 280.526 47.0554C279.18 44.3668 273.798 44.6462 272.859 41.8278C271.46 37.6285 276.398 31.8523 277.38 27.8903C278.302 24.1991 274.85 24.2232 273.547 21.6197C272.217 18.9311 276.039 16.1496 274.592 13.2563C273.672 11.4163 270.8 10.5522 270.072 9.07593C269.154 7.2411 275.068 3.9678 273.903 2.80276C269.066 -2.03452 235.61 0.70741 230.002 1.40987C219.346 2.73914 208.273 0.773617 197.599 2.10632C171.253 5.40111 143.674 4.89554 117.111 4.89554C88.71 4.89554 68.7547 11.3493 39.4129 7.68218C32.0306 6.74929 8.46152 0.984269 2.07142 1.91716Z" fill="#C71585"/>
<path d="M36.9152 103.525C36.8761 103.1 36.7577 102.685 36.5662 102.304C34.1149 97.3994 33.6273 91.6361 33.0702 85.0431L33.0693 85.0337L32.9636 83.7852C32.3815 76.9953 31.5819 69.3413 27.294 62.9091C25.4617 60.1611 21.8695 56.9033 18.3313 54.2035C14.7683 51.4865 10.7005 48.9097 7.63962 47.7627C7.51581 47.7154 7.39028 47.6767 7.26389 47.6449C7.23122 48.0026 7.25786 48.3826 7.36018 48.7919C7.63446 49.8873 8.60433 50.9887 9.60772 52.1279C11.2216 53.9619 12.9223 55.8939 11.9473 58.058C12.696 58.5806 13.4336 59.119 14.1596 59.6728C17.5773 62.2806 20.4009 64.97 21.5711 66.7249C24.7498 71.4934 25.5133 77.4175 26.11 84.3725C26.1539 84.8824 26.1969 85.3982 26.2399 85.9201C26.7334 91.8743 27.2862 98.549 29.9817 104.473C32.2981 104.253 34.6084 103.914 36.9152 103.525Z" fill="#F7DCBC"/>
<path d="M60.3228 100.369C58.5301 83.4962 53.2165 65.9655 43.5617 51.458C41.1834 48.2148 38.285 44.7876 35.1476 41.13C34.7727 40.6932 34.3952 40.253 34.0144 39.811C31.2174 36.5549 28.2811 33.1389 25.5117 29.6386C19.2772 21.7585 13.4701 12.9601 11.7573 3.64145C11.6942 3.29769 11.6834 2.94634 11.7255 2.59937C13.9533 2.93555 16.3659 3.356 18.8215 3.80998C20.5205 10.9025 25.154 18.1 30.9061 25.3705C33.5827 28.753 36.4218 32.0573 39.2282 35.3237L40.3683 36.6512C43.5127 40.3166 46.5916 43.951 49.1564 47.4556C49.1865 47.496 49.2149 47.5373 49.2433 47.5794C59.8249 63.4506 65.4472 82.461 67.2468 100.461C64.9392 100.404 62.6311 100.374 60.3228 100.369Z" fill="#F7DCBC"/>
<path d="M44.3142 8.21152C47.903 16.6978 53.2596 23.971 58.7718 30.6947C60.5491 32.8622 62.3237 34.9533 64.0674 37.0082C68.0733 41.7286 71.9166 46.2572 75.263 51.0945C85.1293 65.3484 93.2338 84.5815 96.7212 101.856C99.0805 101.984 101.441 102.107 103.798 102.219C100.326 83.5824 91.6475 62.6795 80.9197 47.1815C77.3721 42.0527 73.1745 37.1054 69.0698 32.2673C67.3935 30.3039 65.734 28.3263 64.0915 26.3346C59.4631 20.6882 55.2363 14.9842 52.1118 8.70763C49.5086 8.61192 46.9084 8.44707 44.3142 8.21152Z" fill="#F7DCBC"/>
<path d="M128.587 102.693C127.807 97.8003 126.503 91.9905 125.031 87.9426C119.482 72.6835 109.404 59.9394 98.9617 46.7345L98.8921 46.6459C89.5021 34.772 79.8095 22.5025 73.8673 8.08439C76.2774 7.88835 78.6702 7.66308 81.0657 7.42664C86.6131 19.942 95.2491 30.951 104.287 42.3796L104.677 42.8722C114.896 55.7934 125.565 69.2838 131.495 85.5918C133.24 90.3878 134.694 97.0531 135.506 102.429C133.22 102.557 130.912 102.643 128.587 102.693Z" fill="#F7DCBC"/>
<path d="M172.026 99.1802C170.793 98.6282 169.529 98.0745 168.268 97.5216L168.047 97.4253C164.156 95.7203 160.138 93.9603 157.775 92.4582C154.564 90.4136 150.795 86.8952 146.972 82.7888C143.102 78.6299 139.006 73.6791 135.133 68.5968C127.465 58.5344 120.378 47.5659 117.755 41.0072C115.898 36.3643 113.607 31.6044 111.237 26.6785C110.593 25.3381 109.943 23.9856 109.293 22.6202C106.621 17.0022 103.992 11.2011 102.117 5.45158C104.448 5.28821 106.82 5.1515 109.247 5.05521C110.917 9.79103 113.131 14.673 115.505 19.6668C116.12 20.9608 116.748 22.2651 117.378 23.5755L117.379 23.5772C119.763 28.5314 122.188 33.5708 124.141 38.4519C126.393 44.0836 132.984 54.4271 140.604 64.4276C144.376 69.3783 148.327 74.1477 152.007 78.1028C155.736 82.1087 159.021 85.0965 161.468 86.6545C163.313 87.8281 166.816 89.3766 171.028 91.2209L171.206 91.2992C175.19 93.0446 179.646 94.9972 182.991 96.8922C183.482 97.1689 183.897 97.563 184.199 98.0392C180.142 98.4107 176.084 98.7941 172.026 99.1802Z" fill="#F7DCBC"/>
<path d="M209.981 98.3984C202.78 91.9636 197.182 88.3284 192.613 85.7747C190.65 84.6767 188.976 83.8281 187.352 83.0044C186.317 82.4842 185.287 81.9536 184.263 81.4129C181.689 80.0441 179.223 78.5635 176.84 76.4449C168.385 68.9302 162.062 59.7079 156.289 50.4839C154.956 48.3476 153.635 46.2047 152.324 44.0551C147.973 36.9487 143.748 30.0471 138.789 23.7361C133.5 17.0055 130.33 11.4718 126.83 4.9097C129.433 4.91572 132.043 4.92088 134.658 4.9226C137.41 9.91293 140.129 14.3091 144.198 19.486C149.43 26.1453 153.938 33.513 158.327 40.6829C159.581 42.7399 160.845 44.7906 162.119 46.8348C167.83 55.96 173.728 64.4755 181.409 71.3033C183.203 72.8982 185.125 74.0805 187.492 75.3392C188.303 75.77 189.223 76.2377 190.218 76.7433C191.964 77.6315 193.943 78.6374 195.97 79.7698C202.252 83.2813 210.08 88.5545 220.585 98.941C217.059 98.8584 213.522 98.6375 209.981 98.3984Z" fill="#F7DCBC"/>
<path d="M266.239 102.069C265.861 101.664 265.486 101.257 265.115 100.848C263.962 99.5712 262.821 98.2834 261.692 96.985C260.245 95.329 258.81 93.6893 257.201 91.9637C251.781 86.154 245.903 81.1413 237.814 78.9436C234.811 78.1277 232.369 78.0546 229.582 78.0081L229.272 78.003C226.552 77.9591 223.464 77.9084 219.717 77.003C209.766 74.5973 203.088 72.722 194.7 65.7215C187.395 59.6237 184.708 51.698 182.904 44.4352C182.514 42.8617 182.18 41.3923 181.858 39.9728C181.397 37.9471 180.96 36.022 180.411 34.0332C179.519 30.796 178.466 27.9647 176.93 25.5521C174.426 21.6185 169.923 17.5507 164.957 13.3746C164.208 12.7459 163.458 12.1191 162.705 11.4942C160.018 9.25698 157.286 6.98365 154.994 4.7834C158.362 4.72524 161.73 4.63925 165.097 4.52545C165.702 5.03274 166.323 5.5512 166.958 6.08171C167.747 6.73946 168.559 7.41613 169.384 8.11085C174.246 12.1992 179.576 16.8998 182.733 21.8592C184.796 25.1007 186.069 28.6758 187.042 32.2044C187.611 34.2697 188.13 36.5378 188.631 38.7338C188.951 40.1344 189.264 41.5058 189.58 42.7775C191.297 49.6903 193.546 55.7984 199.108 60.4405C206.24 66.3938 211.635 67.9725 221.334 70.3171C224.33 71.042 226.76 71.0824 229.532 71.128L229.696 71.1305C232.545 71.1787 235.725 71.2483 239.617 72.3059C249.555 75.0057 256.506 81.137 262.23 87.2717C263.829 88.9853 265.471 90.8597 267.036 92.6447C268.082 93.847 269.14 95.0398 270.207 96.2232C272.377 98.6126 274.444 100.705 276.575 102.392C274.926 102.368 273.292 102.283 271.938 102.213C270.861 102.157 269.961 102.109 269.37 102.109C268.324 102.109 267.28 102.096 266.239 102.069Z" fill="#F7DCBC"/>
<path d="M282.173 76.2904C278.844 74.2526 274.588 72.2011 270.074 70.1762C268.158 69.3164 266.184 68.4575 264.245 67.6132L264.243 67.6123C260.493 65.9804 256.869 64.4035 254.024 62.9805C249.293 60.6152 243.921 58.5946 238.336 56.4933C235.643 55.4804 232.9 54.4478 230.155 53.3498C222.055 50.1083 213.881 46.2607 208.857 40.6083C208.799 40.5431 208.743 40.4757 208.69 40.4062C203.222 33.2225 200.949 28.4454 199.704 23.9117C199.176 21.99 198.844 20.144 198.523 18.3607L198.395 17.6454C198.025 15.6102 197.614 13.5045 196.878 10.9887C196.86 10.9273 196.843 10.8654 196.829 10.803C195.711 6.00701 194.893 4.14123 194.075 2.52393C195.251 2.39238 196.426 2.25309 197.598 2.10692C198.819 1.95607 200.045 1.84338 201.273 1.76901C201.968 3.51442 202.731 5.83849 203.506 9.14789C204.327 11.9715 204.784 14.3291 205.162 16.4167L205.294 17.1476C205.621 18.9592 205.896 20.4871 206.337 22.0897C207.281 25.5264 209.042 29.4953 214.082 36.1321C217.918 40.3882 224.601 43.7182 232.709 46.9631C235.145 47.9373 237.716 48.9063 240.322 49.8865C246.096 52.0618 252.047 54.3025 257.1 56.8277C259.79 58.1733 263.109 59.6169 266.731 61.193C268.789 62.0832 270.842 62.9858 272.889 63.9005C276.557 65.5453 280.321 67.3208 283.656 69.1909C284.278 69.877 284.771 70.5228 285.054 71.0876C285.464 71.9113 284.577 72.9362 283.679 73.974C282.994 74.7659 282.302 75.5655 282.173 76.2904Z" fill="#F7DCBC"/>
<path d="M278.315 54.8631C272.721 52.3843 268.073 48.626 264.322 45.5926C263.532 44.9499 262.736 44.3142 261.934 43.6856C258.406 40.9419 255.881 37.0478 253.837 33.8966L253.548 33.4521C252.444 31.7531 251.476 30.288 250.478 29.0628C249.481 27.8419 248.6 27.0466 247.765 26.5823C245.025 25.0595 242.592 23.9134 240.306 22.8782C239.815 22.6555 239.323 22.4354 238.834 22.2161C237.083 21.4311 235.351 20.6547 233.688 19.8087C229.253 17.55 225.144 14.7203 220.425 9.21585C220.359 9.13858 220.296 9.05824 220.238 8.9751C217.898 5.69923 216.535 3.47404 215.64 1.80859C218.332 1.88254 221.021 1.93327 223.693 1.86018C224.358 2.87128 225.043 3.86942 225.746 4.85404C229.783 9.53741 233.132 11.8064 236.808 13.6783C238.305 14.44 239.832 15.1244 241.551 15.8957C242.063 16.1253 242.593 16.3626 243.143 16.6119C245.504 17.6807 248.13 18.9162 251.107 20.5705C253.009 21.628 254.535 23.1551 255.808 24.7148C257.078 26.2727 258.239 28.0465 259.316 29.7034L259.335 29.7317C261.594 33.2088 263.563 36.2379 266.157 38.2559C267.069 38.969 267.976 39.689 268.877 40.4157C272.591 43.3932 276.369 46.4241 280.711 48.4145C280.572 50.098 279.484 52.533 278.315 54.8631Z" fill="#F7DCBC"/>
<path d="M273.495 19.0607C272.19 18.4798 270.884 17.9014 269.578 17.3256C263.95 14.8433 260.163 13.1727 256.265 10.834C252.539 8.59853 250.048 6.1541 248.165 4.02177C247.586 3.3607 247.018 2.69054 246.46 2.01154C246.247 1.75377 246.032 1.49697 245.817 1.24115C245.54 0.91106 245.255 0.587957 244.962 0.272143C247.818 0.134574 250.834 0.0356979 253.805 0.00732422C255.3 1.63666 257.154 3.34682 259.804 4.93575C263.312 7.04056 266.566 8.47558 271.938 10.8452L272.087 10.9114C272.096 10.9174 272.104 10.9231 272.112 10.9286C273.081 11.5881 274.108 12.2871 274.592 13.2561C275.33 14.7315 274.698 16.1777 274.078 17.5982C273.863 18.0882 273.65 18.5766 273.495 19.0607Z" fill="#F7DCBC"/>
</svg>
